<svg width="1200" height="280" viewBox="0 0 1200 280" xmlns="http://www.w3.org/2000/svg">
  <defs>
    <pattern id="grid" width="40" height="40" patternUnits="userSpaceOnUse">
      <path d="M 40 0 L 0 0 0 40" fill="none" stroke="#1f2630" stroke-width="1"/>
    </pattern>
    <linearGradient id="bg" x1="0" y1="0" x2="1" y2="1">
      <stop offset="0%" stop-color="#0d1117"/>
      <stop offset="100%" stop-color="#111826"/>
    </linearGradient>
    <radialGradient id="glow" cx="50%" cy="50%" r="50%">
      <stop offset="0%" stop-color="#58a6ff" stop-opacity="0.28"/>
      <stop offset="100%" stop-color="#58a6ff" stop-opacity="0"/>
    </radialGradient>
  </defs>

  <rect width="1200" height="280" fill="url(#bg)"/>
  <rect width="1200" height="280" fill="url(#grid)"/>

  <circle cx="990" cy="140" r="140" fill="url(#glow)"/>

  <g stroke="#e3b341" stroke-width="1.5" fill="none" opacity="0.9">
    <circle cx="990" cy="140" r="85"/>
    <circle cx="990" cy="140" r="55"/>
    <line x1="990" y1="35" x2="990" y2="245"/>
    <line x1="885" y1="140" x2="1095" y2="140"/>
    <line x1="920" y1="70" x2="1060" y2="210"/>
    <line x1="1060" y1="70" x2="920" y2="210"/>
  </g>
  <polygon points="990,90 1005,140 990,190 975,140" fill="#e3b341" opacity="0.85"/>
  <text x="990" y="28" fill="#8b949e" font-family="'Courier New', monospace" font-size="13" text-anchor="middle">N</text>

  <text x="60" y="118" fill="#f0f6fc" font-family="'Courier New', monospace" font-size="50" font-weight="bold">ANAS JAVEED</text>
  <text x="62" y="153" fill="#58a6ff" font-family="'Courier New', monospace" font-size="19">Systems Thinker &#183; Builder &#183; B.Tech CSE @ IUST, Kashmir</text>
  <text x="62" y="192" fill="#8b949e" font-family="'Courier New', monospace" font-size="14" font-style="italic">Not the plane. Not the stack. It's the pilot. It's the architect.</text>

  <line x1="60" y1="213" x2="840" y2="213" stroke="#30363d" stroke-width="1"/>
  <text x="60" y="238" fill="#6e7681" font-family="'Courier New', monospace" font-size="13" letter-spacing="1">DSA &#183; SYSTEMS &#183; AI/ML &#183; COMPETITIVE PROGRAMMING</text>
</svg>
